<svg width="35" height="35" viewBox="0 0 35 35" fill="none" xmlns="http://www.w3.org/2000/svg">
<circle cx="17.5" cy="17.5" r="17" stroke="#0B1F3D"/>
<path d="M24.75 21.315V23.9671C24.75 24.3608 24.4456 24.6875 24.0529 24.7153C23.7248 24.7384 23.4572 24.75 23.25 24.75C16.6226 24.75 11.25 19.3774 11.25 12.75C11.25 12.5428 11.2616 12.2752 11.2848 11.9471C11.3125 11.5544 11.6392 11.25 12.0329 11.25H14.6851C14.8776 11.25 15.0388 11.3958 15.0581 11.5874C15.0755 11.7593 15.0916 11.8974 15.1066 12.0015C15.2583 13.061 15.5681 14.0695 16.0115 15.0023C16.0827 15.152 16.0363 15.3312 15.9014 15.4275L14.2827 16.5838C15.2681 18.8858 17.1142 20.7319 19.4162 21.7174L20.5703 20.1014C20.6679 19.9649 20.8492 19.918 21.0007 19.9899C21.9334 20.4329 22.9418 20.7425 24.0012 20.8938C24.1047 20.9087 24.2419 20.9246 24.4126 20.9419C24.6042 20.9612 24.75 21.1225 24.75 21.315Z" fill="#0B1F3D"/>
</svg>
