<svg xmlns="http://www.w3.org/2000/svg" width="36" height="36" viewBox="0 0 36 36" fill="none">
  <g clip-path="url(#clip0_2_88)">
    <path d="M9.70564 9.33131C11.6185 4.48425 16.3444 1.05469 21.8714 1.05469C29.0919 1.05469 34.9453 6.90806 34.9453 14.1286C34.9453 19.6677 31.5006 24.4023 26.6365 26.3069M13.4575 22.5469C10.0627 19.1521 10.2299 16.0548 10.2299 16.0548L2.64303 8.46787C1.43549 9.98564 0.864337 11.9325 1.1112 13.877C1.50024 16.9417 3.25517 21.4886 8.88559 27.1189C14.4499 32.6832 18.956 34.4625 22.019 34.879C23.9993 35.1483 25.9893 34.589 27.5362 33.361L19.9496 25.7745C19.9496 25.7745 16.8524 25.9417 13.4575 22.5469ZM30.5653 30.3997L22.9449 22.7793L19.9497 25.7745L27.5361 33.3609C27.755 33.1871 27.9638 33.001 28.1615 32.8035L30.5653 30.3997Z" stroke="#0C2142" stroke-width="2.10938" stroke-miterlimit="10" stroke-linecap="round" stroke-linejoin="round"/>
    <path d="M29.3516 14.8461H23.8552L27.3381 8.78267C27.5771 8.36656 28.2128 8.53615 28.2128 9.01603V17.5805M20.8698 17.5805L16.4095 17.5668L19.525 13.1551C20.0464 12.4101 20.4988 11.7295 20.4988 10.9164C20.4988 9.67943 19.4961 8.67671 18.2591 8.67671C17.1707 8.67671 16.2637 9.4531 16.0615 10.4823M13.2252 13.0596L5.60477 5.43917L3.20022 7.84371C3.00285 8.04107 2.81683 8.24946 2.64307 8.46788L10.23 16.0548L13.2252 13.0596Z" stroke="#0C2142" stroke-width="2.10938" stroke-miterlimit="10" stroke-linecap="round" stroke-linejoin="round"/>
  </g>
  <defs>
    <clipPath id="clip0_2_88">
      <rect width="36" height="36" fill="white"/>
    </clipPath>
  </defs>
</svg>