<svg width="40" height="40" viewBox="0 0 40 40" fill="none" xmlns="http://www.w3.org/2000/svg">
<path d="M36.7937 20.1955C36.7937 18.9241 36.6796 17.7017 36.4677 16.5281H19.5813V23.4717H29.2307C28.8069 25.7048 27.5355 27.5955 25.6285 28.8669V33.3819H31.4474C34.8378 30.2524 36.7937 25.6559 36.7937 20.1955Z" fill="#4285F4"/>
<path d="M19.5813 37.7176C24.4223 37.7176 28.4809 36.1203 31.4475 33.3819L25.6285 28.8669C24.0311 29.9427 21.9937 30.5947 19.5813 30.5947C14.9196 30.5947 10.9588 27.4488 9.54074 23.2109H3.57507V27.84C6.52531 33.6916 12.5725 37.7176 19.5813 37.7176Z" fill="#34A853"/>
<path d="M9.54076 23.1946C9.18217 22.1188 8.97027 20.9779 8.97027 19.788C8.97027 18.5981 9.18217 17.4571 9.54076 16.3814V11.7523H3.57509C2.35262 14.1646 1.65173 16.8866 1.65173 19.788C1.65173 22.6893 2.35262 25.4114 3.57509 27.8237L8.22049 24.2052L9.54076 23.1946Z" fill="#FBBC05"/>
<path d="M19.5813 8.99764C22.2219 8.99764 24.569 9.91042 26.4435 11.6708L31.5779 6.5364C28.4646 3.63506 24.4223 1.8584 19.5813 1.8584C12.5725 1.8584 6.52531 5.88441 3.57507 11.7523L9.54074 16.3814C10.9588 12.1435 14.9196 8.99764 19.5813 8.99764Z" fill="#EA4335"/>
</svg>
