<svg width="16" height="17" viewBox="0 0 16 17" fill="none" xmlns="http://www.w3.org/2000/svg">
<path d="M8.00004 7.83331V5.83331L10.6667 8.49998L8.00004 11.1666V9.16665H5.33337V7.83331H8.00004ZM8.00004 1.83331C11.68 1.83331 14.6667 4.81998 14.6667 8.49998C14.6667 12.18 11.68 15.1666 8.00004 15.1666C4.32004 15.1666 1.33337 12.18 1.33337 8.49998C1.33337 4.81998 4.32004 1.83331 8.00004 1.83331ZM8.00004 13.8333C10.9467 13.8333 13.3334 11.4466 13.3334 8.49998C13.3334 5.55331 10.9467 3.16665 8.00004 3.16665C5.05337 3.16665 2.66671 5.55331 2.66671 8.49998C2.66671 11.4466 5.05337 13.8333 8.00004 13.8333Z" fill="#4DBC9D"/>
</svg>
