<svg xmlns="http://www.w3.org/2000/svg" width="19" height="19" viewBox="0 0 19 19" fill="none">
  <path d="M8.86842 1.65355C9.09856 1.19035 9.75933 1.19035 9.98948 1.65355L11.8691 5.43654C11.9602 5.61997 12.1353 5.7472 12.3379 5.77719L16.5166 6.39578C17.0283 6.47153 17.2324 7.09996 16.863 7.46198L13.846 10.4186C13.6997 10.5619 13.6328 10.7678 13.6669 10.9698L14.3699 15.1351C14.456 15.6451 13.9214 16.0335 13.4629 15.794L9.71873 13.8383C9.53718 13.7435 9.32072 13.7435 9.13917 13.8383L5.39496 15.794C4.93651 16.0335 4.40193 15.6451 4.48801 15.1351L5.19097 10.9698C5.22505 10.7678 5.15816 10.5619 5.01188 10.4186L1.99487 7.46198C1.62545 7.09996 1.82964 6.47153 2.3413 6.39578L6.51995 5.77719C6.72257 5.7472 6.89769 5.61997 6.98883 5.43654L8.86842 1.65355Z" 
    fill="none" 
    stroke="#FEA500" 
    stroke-width="1.5"/>
</svg>
